<svg xmlns="http://www.w3.org/2000/svg" viewBox="0 0 132.88 132.89"><metadata><?xpacket begin="﻿" id="W5M0MpCehiHzreSzNTczkc9d"?>
<x:xmpmeta xmlns:x="adobe:ns:meta/" x:xmptk="Adobe XMP Core 7.1-c000 79.b0f8be9, 2021/12/08-19:11:22        ">
   <rdf:RDF xmlns:rdf="http://www.w3.org/1999/02/22-rdf-syntax-ns#">
      <rdf:Description rdf:about=""
            xmlns:xmpMM="http://ns.adobe.com/xap/1.0/mm/"
            xmlns:stEvt="http://ns.adobe.com/xap/1.0/sType/ResourceEvent#"
            xmlns:xmp="http://ns.adobe.com/xap/1.0/">
         <xmpMM:InstanceID>xmp.iid:ea949e52-5eba-4343-bb00-4535c0e5e8e5</xmpMM:InstanceID>
         <xmpMM:DocumentID>xmp.did:2849653c-e3a0-4ca1-abac-3f30b4789150</xmpMM:DocumentID>
         <xmpMM:OriginalDocumentID>xmp.did:2849653c-e3a0-4ca1-abac-3f30b4789150</xmpMM:OriginalDocumentID>
         <xmpMM:History>
            <rdf:Seq>
               <rdf:li>
                  <rdf:Description>
                     <stEvt:action>saved</stEvt:action>
                     <stEvt:instanceID>xmp.iid:feb2e302-f213-405a-bc4b-a1dffc86f007</stEvt:instanceID>
                     <stEvt:when>2025-12-20T09:43:55+05:30</stEvt:when>
                     <stEvt:softwareAgent>Adobe Photoshop 23.2 (20220128.orig.527 28d5e1a)  (Macintosh)</stEvt:softwareAgent>
                     <stEvt:changed>/</stEvt:changed>
                  </rdf:Description>
               </rdf:li>
               <rdf:li>
                  <rdf:Description>
                     <stEvt:action>saved</stEvt:action>
                     <stEvt:instanceID>xmp.iid:ea949e52-5eba-4343-bb00-4535c0e5e8e5</stEvt:instanceID>
                     <stEvt:when>2025-12-20T09:43:56+05:30</stEvt:when>
                     <stEvt:softwareAgent>Adobe Photoshop 23.2 (20220128.orig.527 28d5e1a)  (Macintosh)</stEvt:softwareAgent>
                     <stEvt:changed>/metadata</stEvt:changed>
                  </rdf:Description>
               </rdf:li>
            </rdf:Seq>
         </xmpMM:History>
         <xmp:MetadataDate>2025-12-20T09:43:56+05:30</xmp:MetadataDate>
         <xmp:ModifyDate>2025-12-20T09:43:55+05:30</xmp:ModifyDate>
      </rdf:Description>
   </rdf:RDF>
</x:xmpmeta>
                                                                                                    
                                                                                                    
                                                                                                    
                                                                                                    
                                                                                                    
                                                                                                    
                                                                                                    
                                                                                                    
                                                                                                    
                                                                                                    
                                                                                                    
                                                                                                    
                                                                                                    
                                                                                                    
                                                                                                    
                                                                                                    
                                                                                                    
                                                                                                    
                                                                                                    
                                                                                                    
                           
<?xpacket end="w"?></metadata>
<defs><style>.cls-1{fill:#afec22;}</style></defs><g id="Layer_2" data-name="Layer 2"><g id="Layer_1-2" data-name="Layer 1"><polygon class="cls-1" points="132.88 0.05 132.88 55.1 121.53 66.45 94 38.93 93.98 38.88 93.95 38.88 66.45 11.38 77.81 0 132.83 0 132.88 0.05"/><polygon class="cls-1" points="132.88 0.05 132.88 55.1 121.53 66.45 94 38.93 93.98 38.88 93.95 38.88 66.45 11.38 77.81 0 132.83 0 132.88 0.05"/><polygon class="cls-1" points="93.98 38.88 94 38.93 93.95 38.88 93.98 38.88"/><polygon class="cls-1" points="66.45 121.53 55.07 132.88 0.05 132.88 0 132.86 0 77.81 11.36 66.46 38.91 94 38.93 94 66.45 121.53"/><polygon class="cls-1" points="66.45 121.53 55.07 132.88 0.05 132.88 0 132.86 0 77.81 11.36 66.46 38.91 94 38.93 94 66.45 121.53"/><polygon class="cls-1" points="132.88 77.81 132.88 132.86 132.86 132.88 77.81 132.88 66.45 121.53 93.95 94 94 93.95 121.53 66.45 132.88 77.81"/><polygon class="cls-1" points="132.88 77.81 132.88 132.86 132.86 132.88 77.81 132.88 66.45 121.53 93.95 94 94 93.95 121.53 66.45 132.88 77.81"/><polygon class="cls-1" points="93.98 38.88 94 38.93 93.95 38.88 93.98 38.88"/><polygon class="cls-1" points="66.45 11.38 38.93 38.88 11.36 66.45 0 55.08 0 0.05 0.03 0 55.07 0 66.45 11.38"/><polygon class="cls-1" points="66.45 11.38 38.93 38.88 11.36 66.45 0 55.08 0 0.05 0.03 0 55.07 0 66.45 11.38"/><polygon class="cls-1" points="94 38.93 94 93.95 93.95 94 38.91 94 38.88 93.98 38.88 38.93 38.93 38.88 93.95 38.88 94 38.93"/><polygon class="cls-1" points="94 38.93 94 93.95 93.95 94 38.91 94 38.88 93.98 38.88 38.93 38.93 38.88 93.95 38.88 94 38.93"/></g></g></svg>